<?xml version="1.0" encoding="utf-8"?>
<!-- Generator: Adobe Illustrator 15.1.0, SVG Export Plug-In . SVG Version: 6.00 Build 0)  -->
<!DOCTYPE svg PUBLIC "-//W3C//DTD SVG 1.1//EN" "http://www.w3.org/Graphics/SVG/1.1/DTD/svg11.dtd">
<svg version="1.1" id="Ebene_1" xmlns="http://www.w3.org/2000/svg" xmlns:xlink="http://www.w3.org/1999/xlink" x="0px" y="0px"
	 width="9px" height="13px" viewBox="0 0 9 13" style="enable-background:new 0 0 9 13;" xml:space="preserve">
<polygon style="fill:#7D4E24;" points="0,1 1,1 1,0 8,0 8,1 9,1 9,4 8,4 8,3 5,3 5,2 4,2 4,3 3,3 3,5 2,5 2,4 1,4 1,6 0,6 "/>
<rect x="1" y="6" style="fill:#7D4E24;" width="1" height="1"/>
<polygon style="fill:#EEC8A1;" points="8,7 2,7 2,6 1,6 1,4 2,4 2,5 3,5 3,3 4,3 4,2 5,2 5,3 8,3 "/>
<rect x="4" y="5" width="1" height="1"/>
<rect x="7" y="5" width="1" height="1"/>
<polygon style="fill:#009FE3;" points="2,7 2,10 5,10 6,9 6,8 7,8 7,7 "/>
<rect x="1" y="7" style="fill:#1D71B8;" width="1" height="2"/>
<rect x="6" y="7" style="fill:#1D71B8;" width="1" height="2"/>
<rect x="1" y="9" style="fill:#EEC8A1;" width="1" height="1"/>
<rect x="6" y="9" style="fill:#EEC8A1;" width="1" height="1"/>
<polygon style="fill:#432918;" points="2,10 2,12 3,12 3,11 5,11 5,12 6,12 6,10 "/>
<rect x="2" y="12" style="fill:#CA9E67;" width="1" height="1"/>
<rect x="5" y="12" style="fill:#CA9E67;" width="1" height="1"/>
<rect x="5" y="9" style="fill:#009FE3;" width="1" height="1"/>
<polygon style="fill:#B17F4A;fill-opacity:0.44;" points="4,4 4,5 5,5 5,4.5 5,4 "/>
<polygon style="fill:#B17F4A;fill-opacity:0.44;" points="7,4 7,5 8,5 8,4.5 8,4 "/>
</svg>
