<?xml version="1.0" encoding="utf-8"?>
<!-- Generator: Adobe Illustrator 15.1.0, SVG Export Plug-In . SVG Version: 6.00 Build 0)  -->
<!DOCTYPE svg PUBLIC "-//W3C//DTD SVG 1.1//EN" "http://www.w3.org/Graphics/SVG/1.1/DTD/svg11.dtd">
<svg version="1.1" id="Ebene_1" xmlns="http://www.w3.org/2000/svg" xmlns:xlink="http://www.w3.org/1999/xlink" x="0px" y="0px"
	 width="12px" height="8px" viewBox="0 0 12 8" style="enable-background:new 0 0 12 8;" xml:space="preserve">
<polygon style="fill:#009FE3;" points="6,3 4,3 4,4 3,4 3,7 6,7 "/>
<rect x="6" y="1" style="fill:#7D4E24;" width="1" height="1"/>
<polygon style="fill:#EEC8A1;" points="6,8 6,2 7,2 7,1 9,1 9,2 8,2 8,3 10,3 10,4 11,4 11,5 10,5 10,8 "/>
<rect x="4" y="5" style="fill:#EEC8A1;" width="1" height="1"/>
<rect x="3" y="7" style="fill:#EEC8A1;" width="1" height="1"/>
<rect y="7" style="fill:#CA9E67;" width="1" height="1"/>
<polygon style="fill:#B17F4A;fill-opacity:0.44;" points="9,4 7,4 7,5 8,5 9,5 "/>
<polygon style="fill:#B17F4A;fill-opacity:0.44;" points="9,7 7,7 7,8 8,8 9,8 "/>
<polygon style="fill:#683C11;" points="3,4 2,4 2,7 1,7 1,8 3,8 "/>
<rect x="4" y="3" style="fill:#1D71B8;" width="2" height="1"/>
<rect x="4" y="7" style="fill:#1D71B8;" width="2" height="1"/>
<rect x="4" y="4" style="fill:#1D71B8;" width="1" height="1"/>
<polyline style="fill:#7D4E24;" points="7,1 7,0 11,0 11,1 12,1 12,8 10,8 10,6 10,5 11,5 11,4 10,4 10,3 8,3 8,2 7,2 "/>
</svg>
